<svg width="24" height="24" viewBox="0 0 24 24" fill="none" xmlns="http://www.w3.org/2000/svg">
<path d="M20.7778 12V18C20.7778 19.8856 20.7778 20.8284 20.192 21.4142C19.6062 22 18.6634 22 16.7778 22H5.77778C4.24366 22 3 20.7563 3 19.2222V19.2222C3 17.6881 4.24365 16.4444 5.77778 16.4444H16.7778C18.6634 16.4444 19.6062 16.4444 20.192 15.8587C20.7778 15.2729 20.7778 14.3301 20.7778 12.4444V6C20.7778 4.11438 20.7778 3.17157 20.192 2.58579C19.6062 2 18.6634 2 16.7778 2H7C5.11438 2 4.17157 2 3.58579 2.58579C3 3.17157 3 4.11438 3 6V19.2222" stroke="black" stroke-width="1.75"/>
<path d="M8.55554 9.77776L10.0707 11.2929C10.4612 11.6834 11.0943 11.6834 11.4849 11.2929L15.2222 7.55554" stroke="black" stroke-width="1.75" stroke-linecap="round"/>
</svg>
