<svg width="24" height="24" viewBox="0 0 24 24" fill="none" xmlns="http://www.w3.org/2000/svg">
<path fill-rule="evenodd" clip-rule="evenodd" d="M17.3965 13.9825C18.0766 13.9825 18.6474 14.5438 18.5434 15.2154C17.9333 19.1664 14.551 22.1 10.4716 22.1C5.9582 22.1 2.29999 18.4418 2.29999 13.9295C2.29999 10.2119 5.12428 6.74887 8.304 5.96588C8.98727 5.79718 9.6875 6.2778 9.6875 6.98122C9.6875 11.7471 9.84771 12.9799 10.7527 13.6505C11.6577 14.321 12.7219 13.9825 17.3965 13.9825Z" stroke="black" stroke-width="1.75" stroke-linecap="round" stroke-linejoin="round"/>
<path fill-rule="evenodd" clip-rule="evenodd" d="M21.8461 10.0138C21.9002 6.95183 18.1391 2.01621 13.5557 2.10109C13.1992 2.10745 12.9138 2.40452 12.8979 2.75995C12.7822 5.27762 12.9382 8.5401 13.0252 10.0191C13.0517 10.4795 13.4135 10.8413 13.8729 10.8679C15.3933 10.9549 18.7746 11.0737 21.2562 10.6981C21.5936 10.6472 21.8408 10.3544 21.8461 10.0138Z" stroke="black" stroke-width="1.75" stroke-linecap="round" stroke-linejoin="round"/>
</svg>
