<svg width="24" height="24" viewBox="0 0 24 24" fill="none" xmlns="http://www.w3.org/2000/svg">
<path d="M15.6399 15.8149L12.0039 12.1789L8.36786 15.8149" stroke="black" stroke-width="1.75" stroke-linecap="round" stroke-linejoin="round"/>
<path d="M12.0039 12.1789V20.3599" stroke="black" stroke-width="1.75" stroke-linecap="round" stroke-linejoin="round"/>
<path d="M19.6305 17.9874C20.5171 17.504 21.2175 16.7392 21.6211 15.8136C22.0247 14.888 22.1086 13.8543 21.8596 12.8758C21.6105 11.8972 21.0426 11.0294 20.2456 10.4094C19.4486 9.7894 18.4677 9.45247 17.458 9.45181H16.3126C16.0375 8.38758 15.5247 7.39957 14.8127 6.56207C14.1008 5.72456 13.2082 5.05935 12.2022 4.61644C11.1961 4.17354 10.1028 3.96446 9.00431 4.00493C7.90583 4.0454 6.83082 4.33437 5.86011 4.85011C4.88939 5.36585 4.04821 6.09494 3.39983 6.98256C2.75144 7.87019 2.31272 8.89326 2.11664 9.97484C1.92055 11.0564 1.97222 12.1684 2.26774 13.2271C2.56327 14.2859 3.09497 15.2639 3.82286 16.0876" stroke="black" stroke-width="1.75" stroke-linecap="round" stroke-linejoin="round"/>
<path d="M15.6399 15.8149L12.0039 12.1789L8.36786 15.8149" stroke="black" stroke-width="1.75" stroke-linecap="round" stroke-linejoin="round"/>
</svg>
