<svg width="24" height="24" viewBox="0 0 24 24" fill="none" xmlns="http://www.w3.org/2000/svg">
<path d="M2.5242 13.7272L3.36472 13.4839L3.36472 13.4839L2.5242 13.7272ZM2.5242 6.34059L1.68369 6.09736L2.5242 6.34059ZM21.4758 6.3406L22.3163 6.09737L22.3163 6.09737L21.4758 6.3406ZM21.4758 13.7271L20.6353 13.4839L20.6353 13.4839L21.4758 13.7271ZM17.3498 17.5639L17.1863 16.7043L17.3498 17.5639ZM6.65025 17.5639L6.4868 18.4235L6.65025 17.5639ZM6.65024 2.50382L6.4868 1.64422L6.65024 2.50382ZM17.3498 2.50382L17.5132 1.64422L17.3498 2.50382ZM2.57783 13.9125L1.73732 14.1557L1.73732 14.1557L2.57783 13.9125ZM21.4222 13.9125L22.2627 14.1557L22.2627 14.1557L21.4222 13.9125ZM21.4222 6.15526L20.5817 6.39849L20.5817 6.39849L21.4222 6.15526ZM2.57783 6.15526L1.73732 5.91203L2.57783 6.15526ZM12.875 18.5811C12.875 18.0979 12.4832 17.7061 12 17.7061C11.5167 17.7061 11.125 18.0979 11.125 18.5811H12.875ZM11.125 22C11.125 22.4832 11.5167 22.875 12 22.875C12.4832 22.875 12.875 22.4832 12.875 22H11.125ZM9.07095 21.125C8.5877 21.125 8.19595 21.5168 8.19595 22C8.19595 22.4832 8.5877 22.875 9.07095 22.875V21.125ZM14.929 22.875C15.4123 22.875 15.804 22.4832 15.804 22C15.804 21.5168 15.4123 21.125 14.929 21.125V22.875ZM20.5817 6.39849L20.6353 6.58383L22.3163 6.09737L22.2627 5.91203L20.5817 6.39849ZM20.6353 13.4839L20.5817 13.6693L22.2627 14.1557L22.3163 13.9704L20.6353 13.4839ZM3.41835 13.6693L3.36472 13.4839L1.68369 13.9704L1.73732 14.1557L3.41835 13.6693ZM3.36472 6.58382L3.41835 6.39849L1.73732 5.91203L1.68369 6.09736L3.36472 6.58382ZM3.36472 13.4839C2.71176 11.2276 2.71176 8.84019 3.36472 6.58382L1.68369 6.09736C0.938771 8.67152 0.938771 11.3962 1.68369 13.9704L3.36472 13.4839ZM20.6353 6.58383C21.2882 8.84019 21.2882 11.2276 20.6353 13.4839L22.3163 13.9704C23.0612 11.3962 23.0612 8.67152 22.3163 6.09737L20.6353 6.58383ZM17.1863 16.7043C13.7612 17.3556 10.2388 17.3556 6.81369 16.7043L6.4868 18.4235C10.1279 19.1158 13.8721 19.1158 17.5132 18.4235L17.1863 16.7043ZM6.81369 3.36342C10.2388 2.71219 13.7612 2.71219 17.1863 3.36342L17.5132 1.64422C13.8721 0.951925 10.1279 0.951925 6.4868 1.64422L6.81369 3.36342ZM6.81369 16.7043C5.17013 16.3918 3.8642 15.21 3.41835 13.6693L1.73732 14.1557C2.3721 16.3493 4.21617 17.9918 6.4868 18.4235L6.81369 16.7043ZM17.5132 18.4235C19.7838 17.9918 21.6279 16.3493 22.2627 14.1557L20.5817 13.6693C20.1358 15.21 18.8299 16.3918 17.1863 16.7043L17.5132 18.4235ZM17.1863 3.36342C18.8299 3.67593 20.1358 4.8578 20.5817 6.39849L22.2627 5.91203C21.6279 3.71846 19.7838 2.07595 17.5132 1.64422L17.1863 3.36342ZM6.4868 1.64422C4.21617 2.07595 2.3721 3.71846 1.73732 5.91203L3.41835 6.39849C3.8642 4.8578 5.17013 3.67593 6.81369 3.36342L6.4868 1.64422ZM11.125 18.5811V22H12.875V18.5811H11.125ZM9.07095 22.875H14.929V21.125H9.07095V22.875Z" fill="black"/>
</svg>
