<svg width="24" height="24" viewBox="0 0 24 24" fill="none" xmlns="http://www.w3.org/2000/svg">
<path d="M15.805 3.24857C17.384 3.24857 18.1735 3.24857 18.7407 3.62752C18.9862 3.79157 19.197 4.00238 19.361 4.2479C19.74 4.81504 19.74 5.60455 19.74 7.18357V17.8643C19.74 19.9843 19.74 21.0442 19.0814 21.7028C18.4228 22.3614 17.3628 22.3614 15.2429 22.3614H8.49714C6.37717 22.3614 5.31718 22.3614 4.65859 21.7028C4 21.0442 4 19.9843 4 17.8643V7.18357C4 5.60455 4 4.81504 4.37895 4.2479C4.54301 4.00238 4.75381 3.79157 4.99933 3.62752C5.56647 3.24857 6.35598 3.24857 7.935 3.24857" stroke="black" stroke-width="1.75"/>
<path d="M8.49713 3.24857C8.49713 2.00672 9.50385 1 10.7457 1H12.9943C14.2361 1 15.2428 2.00672 15.2428 3.24857C15.2428 4.49042 14.2361 5.49714 12.9943 5.49714H10.7457C9.50385 5.49714 8.49713 4.49042 8.49713 3.24857Z" stroke="black" stroke-width="1.75"/>
<path d="M8.49713 11.1186L15.2428 11.1186" stroke="black" stroke-width="1.75" stroke-linecap="round"/>
<path d="M8.49713 15.6157L12.9943 15.6157" stroke="black" stroke-width="1.75" stroke-linecap="round"/>
</svg>
