<svg width="24" height="24" viewBox="0 0 24 24" fill="none" xmlns="http://www.w3.org/2000/svg">
<path fill-rule="evenodd" clip-rule="evenodd" d="M16.6884 2H7.31159C4.04725 2 2 4.31278 2 7.58578V16.4142C2 19.6872 4.03858 22 7.31159 22H16.683C19.9614 22 21.9989 19.6872 21.9989 16.4142V7.58578C22.0032 4.31278 19.9647 2 16.6884 2Z" stroke="black" stroke-width="1.75" stroke-linecap="round" stroke-linejoin="round"/>
<path fill-rule="evenodd" clip-rule="evenodd" d="M10.6196 8.54075C10.6196 9.6462 9.72445 10.5414 8.619 10.5414C7.51463 10.5414 6.61835 9.6462 6.61835 8.54075C6.61835 7.4353 7.51463 6.5401 8.619 6.5401C9.72337 6.54118 10.6186 7.43638 10.6196 8.54075Z" stroke="black" stroke-width="1.75" stroke-linecap="round" stroke-linejoin="round"/>
<path d="M22.0036 15.2234C21.0033 14.1938 19.0796 12.114 16.9879 12.114C14.8951 12.114 13.6889 16.7016 11.6763 16.7016C9.66371 16.7016 7.83538 14.6273 6.22272 15.9571C4.61006 17.2858 3.08411 20.0028 3.08411 20.0028" stroke="black" stroke-width="1.75" stroke-linecap="round" stroke-linejoin="round"/>
</svg>
