<svg width="24" height="24" viewBox="0 0 24 24" fill="none" xmlns="http://www.w3.org/2000/svg">
<path d="M21.1573 4.22215C22 5.48327 22 7.23885 22 10.75C22 14.2612 22 16.0167 21.1573 17.2779C20.7926 17.8238 20.3238 18.2926 19.7779 18.6574C18.6762 19.3935 17.1971 19.4865 14.5 19.4983V19.5L13.118 22.2639C12.6574 23.1852 11.3426 23.1852 10.882 22.2639L9.5 19.5V19.4983C6.80287 19.4865 5.32384 19.3935 4.22215 18.6574C3.6762 18.2926 3.20744 17.8238 2.84265 17.2779C2 16.0167 2 14.2612 2 10.75C2 7.23885 2 5.48327 2.84265 4.22215C3.20744 3.6762 3.6762 3.20744 4.22215 2.84265C5.48327 2 7.23884 2 10.75 2H13.25C16.7612 2 18.5167 2 19.7779 2.84265C20.3238 3.20744 20.7926 3.6762 21.1573 4.22215Z" stroke="black" stroke-width="1.75" stroke-linecap="round" stroke-linejoin="round"/>
<path d="M8.25 8.25L15.75 8.25" stroke="black" stroke-width="1.75" stroke-linecap="round" stroke-linejoin="round"/>
<path d="M8.25 13.25H12" stroke="black" stroke-width="1.75" stroke-linecap="round" stroke-linejoin="round"/>
</svg>
