<svg width="24" height="24" viewBox="0 0 24 24" fill="none" xmlns="http://www.w3.org/2000/svg">
<path d="M5.83094 7.52158C6.18021 4.37814 8.83721 2 12 2V2C15.1628 2 17.8198 4.37813 18.1691 7.52158L18.4488 10.0396C18.4737 10.2635 18.4862 10.3755 18.5016 10.4859C18.6397 11.4766 18.9624 12.4327 19.4529 13.3044C19.5076 13.4016 19.5656 13.4982 19.6815 13.6914L20.3238 14.7618C20.9994 15.8878 21.3372 16.4509 21.1728 16.8996C21.1351 17.0025 21.0807 17.0984 21.0119 17.1837C20.7117 17.5556 20.0551 17.5556 18.742 17.5556H5.25804C3.94487 17.5556 3.28828 17.5556 2.98809 17.1837C2.91927 17.0984 2.86493 17.0025 2.82724 16.8996C2.66282 16.4509 3.00063 15.8878 3.67625 14.7618L4.31851 13.6914C4.43442 13.4982 4.49238 13.4016 4.54706 13.3044C5.03761 12.4327 5.36031 11.4766 5.49844 10.4859C5.51384 10.3755 5.52628 10.2635 5.55116 10.0396L5.83094 7.52158Z" stroke="black" stroke-width="1.75"/>
<path d="M8.78029 18.2941C8.9702 19.3573 9.38869 20.2967 9.97084 20.9668C10.553 21.6368 11.2663 22 12 22C12.7338 22 13.4471 21.6368 14.0292 20.9668C14.6114 20.2967 15.0299 19.3573 15.2198 18.2941" stroke="black" stroke-width="1.75" stroke-linecap="round"/>
</svg>
