<svg width="24" height="24" viewBox="0 0 24 24" fill="none" xmlns="http://www.w3.org/2000/svg">
<path d="M2.48087 8.03646C2.88508 6.26664 4.27854 4.8734 6.07805 4.43987C8.53109 3.84889 11.122 3.85565 13.5751 4.44663C15.352 4.87472 16.7639 6.23299 17.211 7.96944L17.2381 8.07457C17.9015 10.6513 17.9015 13.3487 17.2381 15.9254L17.211 16.0306C16.7639 17.767 15.352 19.1253 13.5751 19.5534C11.122 20.1444 8.53109 20.1511 6.07805 19.5601C4.27854 19.1266 2.88508 17.7334 2.48087 15.9635L2.41413 15.6713C1.86196 13.2536 1.86196 10.7464 2.41413 8.32869L2.48087 8.03646Z" stroke="black" stroke-width="1.75"/>
<path d="M17.3347 15.5289L17.548 15.5985C17.6034 15.6166 17.6575 15.6385 17.7098 15.6641L19.5329 16.5561C20.9289 17.2391 22.5714 16.2457 22.5714 14.7184L22.5714 9.66414C22.5714 8.05044 20.7575 7.06665 19.3591 7.92191L17.7505 8.90568C17.6713 8.95416 17.5979 9.01128 17.5318 9.07596L17.4723 9.13413C17.8645 11.2509 17.8186 13.4257 17.3347 15.5289Z" stroke="black" stroke-width="1.75"/>
</svg>
