<svg width="24" height="24" viewBox="0 0 24 24" fill="none" xmlns="http://www.w3.org/2000/svg">
<path d="M21.125 7C21.125 7.48325 21.5168 7.875 22 7.875C22.4832 7.875 22.875 7.48325 22.875 7H21.125ZM17 1.125C16.5168 1.125 16.125 1.51675 16.125 2C16.125 2.48325 16.5168 2.875 17 2.875V1.125ZM2.875 17C2.875 16.5168 2.48325 16.125 2 16.125C1.51675 16.125 1.125 16.5168 1.125 17H2.875ZM7 22.875C7.48325 22.875 7.875 22.4832 7.875 22C7.875 21.5168 7.48325 21.125 7 21.125V22.875ZM7 2.875C7.48325 2.875 7.875 2.48325 7.875 2C7.875 1.51675 7.48325 1.125 7 1.125V2.875ZM1.125 7C1.125 7.48325 1.51675 7.875 2 7.875C2.48325 7.875 2.875 7.48325 2.875 7H1.125ZM17 21.125C16.5168 21.125 16.125 21.5168 16.125 22C16.125 22.4832 16.5168 22.875 17 22.875L17 21.125ZM22.875 17C22.875 16.5168 22.4832 16.125 22 16.125C21.5168 16.125 21.125 16.5168 21.125 17L22.875 17ZM6.01963 11.8254C5.57803 12.0217 5.37915 12.5388 5.57541 12.9804C5.77168 13.422 6.28877 13.6209 6.73037 13.4246L6.01963 11.8254ZM7.43094 12.1557L7.78631 12.9553L7.78631 12.9553L7.43094 12.1557ZM16.5691 12.1557L16.9244 11.3561L16.9244 11.3561L16.5691 12.1557ZM17.2696 13.4246C17.7112 13.6209 18.2283 13.422 18.4246 12.9804C18.6209 12.5388 18.422 12.0217 17.9804 11.8254L17.2696 13.4246ZM22.875 7C22.875 3.75533 20.2447 1.125 17 1.125V2.875C19.2782 2.875 21.125 4.72183 21.125 7H22.875ZM1.125 17C1.125 20.2447 3.75533 22.875 7 22.875V21.125C4.72183 21.125 2.875 19.2782 2.875 17H1.125ZM7 1.125C3.75533 1.125 1.125 3.75533 1.125 7H2.875C2.875 4.72183 4.72183 2.875 7 2.875V1.125ZM17 22.875C20.2447 22.875 22.875 20.2447 22.875 17L21.125 17C21.125 19.2782 19.2782 21.125 17 21.125L17 22.875ZM6.73037 13.4246L7.78631 12.9553L7.07557 11.3561L6.01963 11.8254L6.73037 13.4246ZM16.2137 12.9553L17.2696 13.4246L17.9804 11.8254L16.9244 11.3561L16.2137 12.9553ZM7.78631 12.9553C10.4689 11.763 13.5311 11.763 16.2137 12.9553L16.9244 11.3561C13.7893 9.96273 10.2107 9.96273 7.07557 11.3561L7.78631 12.9553Z" fill="black"/>
</svg>
