<svg width="24" height="24" viewBox="0 0 24 24" fill="none" xmlns="http://www.w3.org/2000/svg">
<path d="M4 17.4444H8.66667C8.97621 17.4444 9.13098 17.4444 9.26147 17.4559C10.7118 17.5827 11.8617 18.7326 11.9886 20.183C12 20.3135 12 20.4682 12 20.7778V9C12 6.17157 12 4.75736 11.1213 3.87868C10.2426 3 8.82843 3 6 3H4C3.05719 3 2.58579 3 2.29289 3.29289C2 3.58579 2 4.05719 2 4.99999V5V15.4444C2 16.3873 2 16.8587 2.29289 17.1516C2.58578 17.4444 3.05719 17.4444 3.99999 17.4444H4Z" stroke="black" stroke-width="1.75"/>
<path d="M20 17.4444H15.3333C15.0238 17.4444 14.869 17.4444 14.7385 17.4559C13.2882 17.5827 12.1383 18.7326 12.0114 20.183C12 20.3135 12 20.4682 12 20.7778V9C12 6.17157 12 4.75736 12.8787 3.87868C13.7574 3 15.1716 3 18 3H20C20.9428 3 21.4142 3 21.7071 3.29289C22 3.58579 22 4.05719 22 4.99999V5V15.4444C22 16.3873 22 16.8587 21.7071 17.1516C21.4142 17.4444 20.9428 17.4444 20 17.4444H20Z" stroke="black" stroke-width="1.75"/>
</svg>
