<svg width="24" height="24" viewBox="0 0 24 24" fill="none" xmlns="http://www.w3.org/2000/svg">
<path d="M3 9.05685C3 8.23935 3 7.8306 3.15224 7.46306C3.30448 7.09552 3.59351 6.80649 4.17157 6.22843L5.22843 5.17157C5.80649 4.59351 6.09552 4.30448 6.46306 4.15224C6.8306 4 7.23935 4 8.05685 4H16.0765C16.894 4 17.3027 4 17.6703 4.15224C18.0378 4.30448 18.3268 4.59351 18.9049 5.17157L19.9618 6.22843C20.5398 6.80649 20.8289 7.09552 20.9811 7.46306C21.1333 7.8306 21.1333 8.23935 21.1333 9.05685V17C21.1333 18.8856 21.1333 19.8284 20.5475 20.4142C19.9618 21 19.019 21 17.1333 21H7C5.11438 21 4.17157 21 3.58579 20.4142C3 19.8284 3 18.8856 3 17V9.05685Z" stroke="black" stroke-width="1.75"/>
<path d="M3 9.66669H21.1333" stroke="black" stroke-width="1.75" stroke-linecap="round"/>
<path d="M15.4 10L8.6 10C8.31716 10 8.17574 10 8.08787 10.0667C8 10.1334 8 10.2408 8 10.4555L8 14.2515C8 14.9482 8 15.2966 8.11869 15.4839C8.38364 15.9019 9.01999 16.102 9.59666 15.9486C9.85498 15.8799 10.1795 15.6336 10.8284 15.1409C11.129 14.9127 11.2793 14.7986 11.4391 14.7345C11.79 14.5936 12.21 14.5936 12.5609 14.7345C12.7207 14.7986 12.871 14.9127 13.1716 15.1409C13.8205 15.6336 14.145 15.8799 14.4033 15.9486C14.98 16.102 15.6164 15.9019 15.8813 15.4839C16 15.2966 16 14.9482 16 14.2515V10.4555C16 10.2408 16 10.1334 15.9121 10.0667C15.8243 10 15.6828 10 15.4 10Z" stroke="black" stroke-width="1.75" stroke-linecap="round"/>
</svg>
