<svg width="24" height="24" viewBox="0 0 24 24" fill="none" xmlns="http://www.w3.org/2000/svg">
<path d="M17.7956 21.4471C17.4537 20.1713 16.7004 19.0439 15.6526 18.2399C14.6047 17.4358 13.3208 17 12 17C10.6792 17 9.3953 17.4358 8.34743 18.2399C7.29957 19.0439 6.5463 20.1713 6.20445 21.4471" stroke="black" stroke-width="1.75"/>
<path fill-rule="evenodd" clip-rule="evenodd" d="M11.389 13.8145C13.5981 13.8145 15.3886 12.0231 15.3886 9.81404C15.3886 7.60494 13.5981 5.81445 11.389 5.81445C9.17989 5.81445 7.38857 7.60494 7.38857 9.81404C7.38111 12.0157 9.16 13.807 11.3608 13.8145H11.389Z" stroke="#130F26" stroke-width="1.75" stroke-linecap="round" stroke-linejoin="round"/>
<rect x="2" y="2" width="20" height="20" rx="4" stroke="black" stroke-width="1.75"/>
</svg>
