<svg width="24" height="24" viewBox="0 0 24 24" fill="none" xmlns="http://www.w3.org/2000/svg">
<path fill-rule="evenodd" clip-rule="evenodd" d="M9.4048 14.9406C13.3972 14.9406 16.8096 15.5455 16.8096 17.9622C16.8096 20.3789 13.42 21.0012 9.4048 21.0012C5.41127 21.0012 2 20.4016 2 17.9839C2 15.5661 5.38855 14.9406 9.4048 14.9406Z" stroke="black" stroke-width="1.75" stroke-linecap="round" stroke-linejoin="round"/>
<path fill-rule="evenodd" clip-rule="evenodd" d="M9.4048 11.4914C6.78357 11.4914 4.65802 9.36692 4.65802 6.7457C4.65802 4.12447 6.78357 2 9.4048 2C12.0249 2 14.1505 4.12447 14.1505 6.7457C14.1602 9.35718 12.0498 11.4817 9.43835 11.4914H9.4048Z" stroke="black" stroke-width="1.75" stroke-linecap="round" stroke-linejoin="round"/>
<path d="M16.8633 10.2596C18.596 10.0161 19.9304 8.52904 19.9336 6.72924C19.9336 4.95542 18.6403 3.48355 16.9445 3.20541" stroke="black" stroke-width="1.75" stroke-linecap="round" stroke-linejoin="round"/>
<path d="M19.1493 14.4269C20.8279 14.6769 22 15.2657 22 16.4778C22 17.3122 21.448 17.8533 20.5562 18.1921" stroke="black" stroke-width="1.75" stroke-linecap="round" stroke-linejoin="round"/>
</svg>
