<svg width="24" height="24" viewBox="0 0 24 24" fill="none" xmlns="http://www.w3.org/2000/svg">
<path d="M14.314 6.52897C14.1211 6.72568 14.0131 6.99016 14.0131 7.26562C14.0131 7.54107 14.1211 7.80555 14.314 8.00227L15.9977 9.68604C16.1945 9.87886 16.4589 9.98686 16.7344 9.98686C17.0098 9.98686 17.2743 9.87886 17.471 9.68604L21.4384 5.71865C21.9676 6.88802 22.1278 8.19089 21.8977 9.45362C21.6677 10.7164 21.0582 11.879 20.1506 12.7866C19.243 13.6942 18.0804 14.3036 16.8177 14.5337C15.5549 14.7637 14.2521 14.6035 13.0827 14.0744L5.81092 21.3461C5.39227 21.7648 4.82445 22 4.23239 22C3.64032 22 3.0725 21.7648 2.65385 21.3461C2.2352 20.9275 2 20.3597 2 19.7676C2 19.1755 2.2352 18.6077 2.65385 18.1891L9.92564 10.9173C9.39647 9.74793 9.23625 8.44506 9.46633 7.18233C9.6964 5.91959 10.3058 4.75696 11.2134 3.84937C12.121 2.94179 13.2836 2.33235 14.5464 2.10227C15.8091 1.8722 17.112 2.03242 18.2813 2.56158L14.3245 6.51844L14.314 6.52897Z" stroke="black" stroke-width="1.75" stroke-linecap="round" stroke-linejoin="round"/>
</svg>
